<svg xmlns="http://www.w3.org/2000/svg" viewBox="0 0 201.726 170.433" height="181.795" width="215.175"><path d="M62.553 36.74v88.583l46.029-26.575V10.165z" fill="#b4b4b6" fill-rule="evenodd" stroke="#595959"/><path d="M31.954 1.031l76.714 8.859L62.64 36.464 1.268 18.748z" fill="#ececec" fill-rule="evenodd" stroke="#595959"/><path d="M1.268 18.748v53.15l61.371 53.15V36.463z" fill="#cecece" fill-rule="evenodd" stroke="#595959"/><path d="M62.64 125.047L1.267 71.897v-53.15L31.954 1.032l76.714 8.859v88.582z" fill="none" stroke="#000" stroke-width="2"/><path d="M93.325 54.18l76.715 62.009v53.15l-76.715-26.575z" fill="#cecece" fill-rule="evenodd" stroke="#595959"/><path d="M170.144 116.21l30.686-17.717v53.15l-30.686 17.716z" fill="#b4b4b6" fill-rule="evenodd" stroke="#595959"/><path style="line-height:125%" d="M124.91 119.853c0 3.147-2.223 4.431-4.949 2.857-2.725-1.573-4.949-5.424-4.949-8.571 0-3.147 2.224-4.431 4.95-2.857 2.725 1.573 4.948 5.424 4.948 8.571zm14.846 20c0 1.563-1.102 2.221-2.474 1.429-1.353-.782-2.475-2.701-2.475-4.286 0-1.562 1.122-2.21 2.475-1.429 1.353.782 2.474 2.724 2.474 4.286zm0-22.857c0 1.563-1.102 2.221-2.474 1.429-1.353-.782-2.475-2.701-2.475-4.286 0-1.563 1.122-2.21 2.475-1.429 1.353.782 2.474 2.724 2.474 4.286zm-7.423 5.112c0-.313-.193-.715-.464-.938l-2.938-2.21a26.158 26.158 0 0 0-.657-2.21c.54-.558 1.12-1.026 1.681-1.573a.493.493 0 0 0 .136-.346c0-.625-2.281-4.353-2.784-5.179a1.254 1.254 0 0 0-.406-.413c-.135-.078-.27-.111-.387-.067l-2.28.67a19.976 19.976 0 0 0-1.45-1.53l-.445-3.671c-.039-.335-.31-.737-.58-.893l-3.596-2.076c-.27-.156-.502-.067-.58.201-.25.949-.347 2.12-.444 3.181a6.962 6.962 0 0 0-1.489-.145l-2.223-3.293a1.422 1.422 0 0 0-.406-.39c-.56-.324-2.725 1.127-3.112 1.507-.097.078-.135.212-.135.368s.058.346.135.524a75.676 75.676 0 0 1 1.74 3.572 6.042 6.042 0 0 0-.619 1.34l-2.996-1.195c-.251-.1-.445.123-.445.413v4.13c0 .312.194.714.464.914l2.939 2.233c.174.725.406 1.462.676 2.22-.56.547-1.14 1.039-1.7 1.563a.493.493 0 0 0-.136.346c0 .647 2.28 4.353 2.783 5.179.116.178.252.323.406.413.136.078.29.122.387.067l2.281-.67c.464.536.947 1.06 1.45 1.529l.445 3.672c.038.335.309.737.58.893l3.595 2.076c.27.156.503.067.58-.201.251-.949.348-2.12.445-3.203a5.828 5.828 0 0 0 1.488.167l2.223 3.292c.116.157.251.302.406.391.56.324 2.726-1.15 3.112-1.529.097-.056.136-.19.136-.346 0-.178-.058-.346-.136-.524a75.68 75.68 0 0 1-1.74-3.572c.252-.413.464-.848.62-1.34l2.995 1.195c.252.1.445-.123.445-.413v-4.13zm12.372 19.04c0-.335-2.494-2.087-2.88-2.355a11.909 11.909 0 0 0-.58-1.496c.174-.346.986-2.109.986-2.51a.364.364 0 0 0-.078-.202c-.232-.29-2.3-2.89-2.397-2.946l-.116-.022c-.657.379-1.237.915-1.778 1.473a8.562 8.562 0 0 0-.58-.38c-.193-.111-.387-.2-.58-.29-.193-.446-1.643-3.493-1.895-3.638-.096-.056-2.165.178-2.397.178-.058.011-.077.067-.077.112 0 .38.812 3.103.986 3.65a2.983 2.983 0 0 0-.58.825c-.387-.178-2.88-1.306-2.88-.97v3.124c0 .335 2.493 2.087 2.88 2.355.155.514.348 1.005.58 1.496-.174.346-.986 2.131-.986 2.51 0 .046.02.124.077.202.232.29 2.3 2.913 2.397 2.969.252.145 1.702-1.25 1.895-1.474.193.134.387.268.58.38.193.111.386.2.58.29.193.446 1.643 3.516 1.894 3.66.097.057 2.165-.178 2.397-.2.058-.011.078-.045.078-.112 0-.402-.812-3.102-.986-3.65.232-.223.425-.49.58-.825.386.178 2.88 1.306 2.88.97v-3.124zm0-22.857c0-.335-2.494-2.087-2.88-2.355a11.909 11.909 0 0 0-.58-1.496c.174-.346.986-2.11.986-2.51a.364.364 0 0 0-.078-.202c-.232-.29-2.3-2.89-2.397-2.946l-.116-.023c-.657.38-1.237.916-1.778 1.474a8.562 8.562 0 0 0-.58-.38c-.193-.111-.387-.2-.58-.29-.193-.447-1.643-3.493-1.895-3.638-.096-.056-2.165.178-2.397.178-.058.011-.077.067-.077.112 0 .38.812 3.102.986 3.65a2.983 2.983 0 0 0-.58.825c-.387-.178-2.88-1.306-2.88-.97v3.124c0 .335 2.493 2.087 2.88 2.355.155.513.348 1.005.58 1.496-.174.346-.986 2.131-.986 2.51 0 .045.02.124.077.202.232.29 2.3 2.913 2.397 2.968.252.145 1.702-1.25 1.895-1.473.193.134.387.268.58.38.193.111.386.2.58.29.193.446 1.643 3.515 1.894 3.66.097.056 2.165-.178 2.397-.2.058-.011.078-.045.078-.112 0-.402-.812-3.103-.986-3.65.232-.223.425-.49.58-.825.386.178 2.88 1.305 2.88.97v-3.124z" font-weight="400" font-family="sans-serif" letter-spacing="0" word-spacing="0" fill="#707070"/><path d="M139.354 27.606l61.372 70.866-30.686 17.717L93.325 54.18z" fill="#ececec" fill-rule="evenodd" stroke="#595959"/><path d="M93.325 142.764V54.18l46.03-26.575 61.371 70.866v53.15l-30.686 17.716z" fill="none" stroke="#000" stroke-width="2"/></svg>