<?xml version="1.0" encoding="UTF-8" standalone="no"?>
<svg
   xmlns:dc="http://purl.org/dc/elements/1.1/"
   xmlns:cc="http://creativecommons.org/ns#"
   xmlns:rdf="http://www.w3.org/1999/02/22-rdf-syntax-ns#"
   xmlns:svg="http://www.w3.org/2000/svg"
   xmlns="http://www.w3.org/2000/svg"
   version="1.1"
   id="svg4185"
   viewBox="0 0 187.87292 144.95799"
   height="40.910366mm"
   width="53.021912mm">
  <title
     id="title4761">Isometric Cloud Icons - AWS Cognito Identity Pool</title>
  <defs
     id="defs4187" />
  <metadata
     id="metadata4190">
    <rdf:RDF>
      <cc:Work
         rdf:about="">
        <dc:format>image/svg+xml</dc:format>
        <dc:type
           rdf:resource="http://purl.org/dc/dcmitype/StillImage" />
        <dc:title>Isometric Cloud Icons - AWS Cognito Identity Pool</dc:title>
        <dc:date>2016-04-28</dc:date>
        <dc:creator>
          <cc:Agent>
            <dc:title>Daniel Joos</dc:title>
          </cc:Agent>
        </dc:creator>
      </cc:Work>
    </rdf:RDF>
  </metadata>
  <g
     transform="translate(-86.063547,-282.74035)"
     id="layer1">
    <g
       id="g4775">
      <path
         style="fill:#cccdcf;fill-opacity:1;fill-rule:evenodd;stroke:#575757;stroke-width:1px;stroke-linecap:butt;stroke-linejoin:miter;stroke-opacity:1"
         d="m 118.60675,372.67776 0,-53.1496 61.37188,35.43307 0,53.1496 z"
         id="path4239" />
      <path
         style="fill:#b4b4b6;fill-opacity:1;fill-rule:evenodd;stroke:#575757;stroke-width:1px;stroke-linecap:butt;stroke-linejoin:miter;stroke-opacity:1"
         d="m 180.04113,355.02373 61.37188,-35.43307 0,53.1496 -61.37188,35.43307 z"
         id="path4241" />
      <path
         id="path4226-6"
         d="m 241.3607,337.19648 30.68594,35.43307 -46.02891,8.85826 z"
         style="fill:#cccdcf;fill-opacity:1;fill-rule:evenodd;stroke:#575757;stroke-width:1px;stroke-linecap:butt;stroke-linejoin:miter;stroke-opacity:1" />
      <path
         id="path4222-9"
         d="m 195.30016,399.12354 -15.34297,26.5748 0,-53.1496 z"
         style="fill:#cccdcf;fill-opacity:1;fill-rule:evenodd;stroke:#575757;stroke-width:1px;stroke-linecap:butt;stroke-linejoin:miter;stroke-opacity:1" />
      <path
         id="path4224-2"
         d="m 179.95719,425.69834 -15.34297,-26.5748 15.34297,-26.5748 z"
         style="fill:#cccdcf;fill-opacity:1;fill-rule:evenodd;stroke:#575757;stroke-width:1px;stroke-linecap:butt;stroke-linejoin:miter;stroke-opacity:1" />
      <path
         id="path4228-3"
         d="m 133.98228,381.711 -46.02891,-8.85826 30.68594,-35.43307 z"
         style="fill:#cccdcf;fill-opacity:1;fill-rule:evenodd;stroke:#575757;stroke-width:1px;stroke-linecap:butt;stroke-linejoin:miter;stroke-opacity:1" />
      <path
         id="path4220-5"
         d="m 118.80444,319.32812 61.37188,-35.43307 61.37188,35.43307 -61.37188,35.43307 z"
         style="fill:#ececec;fill-opacity:1;fill-rule:evenodd;stroke:#575757;stroke-width:1px;stroke-linecap:butt;stroke-linejoin:miter;stroke-opacity:1" />
      <ellipse
         style="fill:#707070;fill-opacity:1;stroke:none;stroke-width:2;stroke-linecap:round;stroke-linejoin:round;stroke-miterlimit:4;stroke-dasharray:none;stroke-dashoffset:0;stroke-opacity:1"
         id="path4212-9-8"
         cx="423.19412"
         cy="215.64961"
         transform="matrix(0.86602541,0.5,-0.8660254,0.5,0,0)"
         rx="27.273657"
         ry="27.103426" />
      <path
         style="font-style:normal;font-weight:normal;font-size:medium;line-height:125%;font-family:sans-serif;letter-spacing:0px;word-spacing:0px;fill:#ffffff;fill-opacity:1;stroke:none;stroke-width:1px;stroke-linecap:butt;stroke-linejoin:miter;stroke-opacity:1"
         id="path4215-9-1"
         d="m 174.1782,316.21144 c 0.34139,-1.10686 1.25712,-2.14292 2.62729,-2.93399 0.33125,-0.19124 0.69278,-0.36502 1.06951,-0.53 -0.87737,-0.24576 -1.66449,-0.56111 -2.36145,-0.9635 -2.04544,-1.18094 -2.34135,-2.82961 -2.65953,-3.01331 -1.92423,-1.11095 -5.97423,1.27981 -7.19384,1.98395 -1.67131,0.96493 -0.96981,2.20448 0.54533,3.07924 l 2.03029,1.17219 c 2.2197,-0.10935 4.32149,0.32174 5.9424,1.20542 z m 6.63595,14.90623 c 3.40285,-1.96463 7.82455,-5.44475 3.38519,-8.00782 -0.51515,-0.29742 -4.48683,-0.17379 -7.51711,-1.92332 -3.03028,-1.74954 -2.81615,-4.04259 -3.3313,-4.34001 -4.43936,-2.56306 -10.46711,-0.0102 -13.86996,1.95444 -2.4392,1.40827 -2.27851,3.18751 0.14571,4.58713 l 13.24233,7.64546 c 2.42422,1.39963 5.50594,1.4924 7.94514,0.0841 z m 3.71254,-20.05866 c 2.12302,-1.22572 2.11215,-3.2314 -0.0242,-4.46482 -2.13635,-1.23343 -5.6103,-1.2397 -7.73332,-0.014 -2.12301,1.22572 -2.11213,3.2314 0.0242,4.46483 2.13635,1.23342 5.61029,1.2397 7.7333,0.014 z m 4.88477,9.4965 c 3.19205,-1.84293 3.17578,-4.84274 -0.0363,-6.69724 -3.21209,-1.8545 -8.40791,-1.8639 -11.59996,-0.021 -3.19205,1.84293 -3.17578,4.84274 0.0363,6.69725 3.2121,1.8545 8.40792,1.86389 11.59997,0.021 z m 5.33942,6.9946 c 1.21961,-0.70414 5.36055,-3.0424 3.43629,-4.15337 -0.31818,-0.1837 -3.17376,-0.35454 -5.2192,-1.53548 -0.69696,-0.40239 -1.24317,-0.85684 -1.66883,-1.36338 -0.28577,0.2175 -0.58674,0.42624 -0.91799,0.61748 -1.37017,0.79107 -3.16468,1.31977 -5.08181,1.51686 1.53055,0.93586 2.27725,2.14931 2.08784,3.43085 l 2.03029,1.17219 c 1.51514,0.87477 3.6621,1.27978 5.33341,0.31485 z m 7.23024,-6.41378 c 2.12301,-1.22572 2.11213,-3.23141 -0.0242,-4.46483 -2.13635,-1.23342 -5.6103,-1.2397 -7.73331,-0.014 -2.12302,1.22573 -2.11214,3.23141 0.0242,4.46483 2.13634,1.23342 5.61029,1.2397 7.73331,0.014 z" />
      <path
         style="fill:none;fill-rule:evenodd;stroke:#000000;stroke-width:2;stroke-linecap:butt;stroke-linejoin:miter;stroke-miterlimit:4;stroke-dasharray:none;stroke-opacity:1"
         d="m 226.01773,381.48781 46.02891,-8.85826 -30.68594,-35.43307 0.1875,-17.86836 -61.37188,-35.43307 -61.37188,35.43307 -0.16513,18.09155 -30.68594,35.43307 46.02891,8.85826 30.63194,17.41254 15.34297,26.5748 15.34297,-26.5748 z"
         id="path4243" />
    </g>
  </g>
</svg>
