<svg xmlns="http://www.w3.org/2000/svg" viewBox="0 0 156.963 180.629" height="192.671" width="167.427"><g transform="translate(-81.518 -247.762)"><path d="M160 426.66l-46.029-26.576-30.686-106.299L160 338.076z" fill="#cccdcf" fill-rule="evenodd" stroke="#595959"/><path d="M206.029 400.084L160 426.66v-88.582l76.715-44.292z" fill="#b4b4b4" fill-rule="evenodd" stroke="#595959"/><path d="M83.285 293.785L160 249.494l76.715 44.291L160 338.077z" fill="#ececec" fill-rule="evenodd" stroke="#595959"/><path d="M160 426.66l-46.029-26.576-30.686-106.299L160 249.494l76.715 44.291-30.686 106.3z" fill="none" stroke="#000" stroke-width="2"/><ellipse cx="386.161" cy="201.409" transform="matrix(.86603 .5 -.86603 .5 0 0)" rx="23.894" ry="23.744" fill="#707070"/><path style="line-height:125%" d="M178.891 296.212l-6.004-3.467c-.563-.325-1.529-.6-2.422-.735l4.705-2.717c.76-.438.756-1.153-.009-1.595l-6.004-3.466c-.765-.442-2.278-.802-3.343-.804l-11.741-.021c-1.065-.002-2.574.353-3.334.791l-9.64 5.566c-.76.438-.755 1.153.01 1.595l7.852 4.533-4.131 2.385c-.76.439-.756 1.153.009 1.595l13.856 8c.765.442 2.003.444 2.763.005l17.442-10.07c.76-.439.756-1.153-.009-1.595zm-10.907-2.77l-4.289 2.477-4.316-2.492 8.605.015zm-3.73-8.513l-4.289 2.476-4.315-2.492 8.604.016zm-6.451 6.991c-1.065-.002-2.574.353-3.334.792l-3.672 2.12-7.39-4.267 9.18-5.3 6.004 3.467c.765.441 2.003.444 2.763.005l5.967-3.445 5.543 3.2-5.967 3.445-9.094-.017zm2.266 14.625l-12.933-7.466 9.18-5.3 6.005 3.466c.765.442 2.002.444 2.763.005l5.967-3.445 5.542 3.2-16.524 9.54z" font-weight="400" font-family="sans-serif" letter-spacing="0" word-spacing="0" fill="#fff"/></g></svg>