<?xml version="1.0" encoding="UTF-8" standalone="no"?>
<svg
   xmlns:dc="http://purl.org/dc/elements/1.1/"
   xmlns:cc="http://creativecommons.org/ns#"
   xmlns:rdf="http://www.w3.org/1999/02/22-rdf-syntax-ns#"
   xmlns:svg="http://www.w3.org/2000/svg"
   xmlns="http://www.w3.org/2000/svg"
   version="1.1"
   id="svg4186"
   viewBox="0 0 201.7262 170.43285"
   height="48.099937mm"
   width="56.931618mm">
  <title
     id="title4776">Isometric Cloud Icons - AWS API Gateway</title>
  <defs
     id="defs4188" />
  <metadata
     id="metadata4191">
    <rdf:RDF>
      <cc:Work
         rdf:about="">
        <dc:format>image/svg+xml</dc:format>
        <dc:type
           rdf:resource="http://purl.org/dc/dcmitype/StillImage" />
        <dc:title>Isometric Cloud Icons - AWS API Gateway</dc:title>
        <dc:date>2016-04-28</dc:date>
        <dc:creator>
          <cc:Agent>
            <dc:title>Daniel Joos</dc:title>
          </cc:Agent>
        </dc:creator>
      </cc:Work>
    </rdf:RDF>
  </metadata>
  <g
     transform="translate(-164.85119,-255.71721)"
     id="layer1">
    <g
       id="g4797">
      <path
         style="fill:#b4b4b6;fill-opacity:1;fill-rule:evenodd;stroke:#595959;stroke-width:1px;stroke-linecap:butt;stroke-linejoin:miter;stroke-opacity:1"
         d="m 227.40393,292.45718 0,88.58269 46.02891,-26.57482 0,-88.58266 z"
         id="path4142-1" />
      <path
         style="fill:#ececec;fill-opacity:1;fill-rule:evenodd;stroke:#595959;stroke-width:1px;stroke-linecap:butt;stroke-linejoin:miter;stroke-opacity:1"
         d="m 196.80472,256.74852 76.71485,8.85827 -46.02891,26.5748 -61.37188,-17.71653 z"
         id="path4203" />
      <path
         style="fill:#cecece;fill-opacity:1;fill-rule:evenodd;stroke:#595959;stroke-width:1px;stroke-linecap:butt;stroke-linejoin:miter;stroke-opacity:1"
         d="m 166.11878,274.46506 0,53.1496 61.37188,53.14961 0,-88.58268 z"
         id="path4205" />
      <path
         style="fill:none;fill-rule:evenodd;stroke:#000000;stroke-width:2;stroke-linecap:butt;stroke-linejoin:miter;stroke-miterlimit:4;stroke-dasharray:none;stroke-opacity:1"
         d="m 227.49066,380.76427 -61.37188,-53.1496 0,-53.14961 30.68594,-17.71653 76.71485,8.85826 0,88.58268 z"
         id="path4157" />
      <path
         style="fill:#cecece;fill-opacity:1;fill-rule:evenodd;stroke:#595959;stroke-width:1px;stroke-linecap:butt;stroke-linejoin:miter;stroke-opacity:1"
         d="m 258.1766,309.89813 76.71485,62.00787 0,53.14961 -76.71485,-26.5748 z"
         id="path4186" />
      <path
         style="fill:#b4b4b6;fill-opacity:1;fill-rule:evenodd;stroke:#595959;stroke-width:1px;stroke-linecap:butt;stroke-linejoin:miter;stroke-opacity:1"
         d="m 334.995,371.92702 30.68594,-17.71654 0,53.14961 -30.68594,17.71654 z"
         id="path4159-3" />
      <path
         style="font-style:normal;font-weight:normal;font-size:medium;line-height:125%;font-family:sans-serif;letter-spacing:0px;word-spacing:0px;fill:#707070;fill-opacity:1;stroke:none;stroke-width:1px;stroke-linecap:butt;stroke-linejoin:miter;stroke-opacity:1"
         id="path4224"
         d="m 289.76115,375.57036 c 0,3.14732 -2.22307,4.4308 -4.94874,2.85713 -2.72568,-1.57367 -4.94874,-5.42413 -4.94874,-8.57145 0,-3.14732 2.22306,-4.4308 4.94874,-2.85713 2.72567,1.57367 4.94874,5.42413 4.94874,8.57145 z m 14.84623,20.00004 c 0,1.56251 -1.10187,2.22098 -2.47437,1.42857 -1.35318,-0.78126 -2.47437,-2.7009 -2.47437,-4.28573 0,-1.56249 1.12119,-2.20982 2.47437,-1.42856 1.35317,0.78125 2.47437,2.72323 2.47437,4.28572 z m 0,-22.85714 c 0,1.5625 -1.10187,2.22098 -2.47437,1.42857 -1.35318,-0.78126 -2.47437,-2.70091 -2.47437,-4.28573 0,-1.5625 1.12119,-2.20982 2.47437,-1.42856 1.35317,0.78125 2.47437,2.72322 2.47437,4.28572 z m -7.42312,5.11158 c 0,-0.3125 -0.1933,-0.71428 -0.46394,-0.9375 l -2.93832,-2.20983 c -0.17398,-0.72545 -0.40595,-1.46206 -0.65725,-2.20982 0.54127,-0.55804 1.12119,-1.02679 1.6818,-1.57366 0.0773,-0.0893 0.13531,-0.18974 0.13531,-0.34598 0,-0.625 -2.28106,-4.35268 -2.78366,-5.17858 -0.11599,-0.17857 -0.25131,-0.32366 -0.40596,-0.41295 -0.13531,-0.0781 -0.27063,-0.11165 -0.38662,-0.067 l -2.28106,0.66963 c -0.46394,-0.53571 -0.94722,-1.06027 -1.44983,-1.52902 l -0.4446,-3.67188 c -0.0386,-0.33479 -0.3093,-0.7366 -0.57994,-0.89285 l -3.59557,-2.07591 c -0.27063,-0.15625 -0.5026,-0.067 -0.57992,0.2009 -0.25132,0.94865 -0.34797,2.12053 -0.44462,3.18079 -0.52194,-0.10045 -1.00522,-0.15625 -1.48849,-0.14509 l -2.22307,-3.29241 c -0.11598,-0.15626 -0.2513,-0.30135 -0.40595,-0.39063 -0.5606,-0.32366 -2.72567,1.12722 -3.1123,1.50669 -0.0967,0.0781 -0.13532,0.21205 -0.13532,0.3683 0,0.15624 0.058,0.34597 0.13532,0.52456 0.6186,1.20535 1.19852,2.36606 1.73979,3.57142 -0.2513,0.41295 -0.46394,0.84822 -0.61859,1.33929 l -2.9963,-1.19421 c -0.25131,-0.10049 -0.44462,0.12277 -0.44462,0.41295 l 0,4.12947 c 0,0.31249 0.19331,0.71428 0.46394,0.91518 l 2.93832,2.23215 c 0.17398,0.72545 0.40595,1.46205 0.67659,2.22098 -0.56061,0.54687 -1.14053,1.03794 -1.70113,1.56249 -0.0773,0.0893 -0.13532,0.18973 -0.13532,0.34598 0,0.64732 2.28106,4.35269 2.78367,5.17859 0.11598,0.17857 0.2513,0.32366 0.40595,0.41295 0.13532,0.0781 0.28997,0.12281 0.38662,0.067 l 2.28106,-0.66964 c 0.46394,0.53572 0.94722,1.06027 1.44983,1.52903 l 0.44462,3.67188 c 0.0386,0.33479 0.30929,0.7366 0.57992,0.89285 l 3.59557,2.0759 c 0.27064,0.15626 0.50261,0.067 0.57994,-0.20089 0.2513,-0.94865 0.34795,-2.12053 0.4446,-3.20313 0.52194,0.12277 1.00522,0.17858 1.4885,0.16743 l 2.22306,3.29241 c 0.11599,0.15626 0.2513,0.30134 0.40595,0.39063 0.56061,0.32366 2.72568,-1.14954 3.1123,-1.52901 0.0967,-0.0558 0.13532,-0.18973 0.13532,-0.34598 0,-0.17857 -0.058,-0.34597 -0.13532,-0.52456 -0.6186,-1.20535 -1.19852,-2.36607 -1.73979,-3.57142 0.2513,-0.41296 0.46394,-0.84822 0.61859,-1.33929 l 2.99631,1.1942 c 0.25131,0.1005 0.44461,-0.12276 0.44461,-0.41295 l 0,-4.12946 z m 12.37186,19.04022 c 0,-0.33482 -2.4937,-2.08706 -2.88032,-2.35492 -0.15465,-0.49107 -0.34796,-1.00447 -0.57993,-1.49554 0.17398,-0.34598 0.98588,-2.10938 0.98588,-2.51116 0,-0.0446 -0.0194,-0.12278 -0.0773,-0.2009 -0.23197,-0.29018 -2.30038,-2.89062 -2.39704,-2.94642 l -0.11599,-0.0224 c -0.65725,0.37947 -1.23718,0.91518 -1.77845,1.47321 -0.19331,-0.13395 -0.38662,-0.26781 -0.57993,-0.37941 -0.19332,-0.11161 -0.38662,-0.20087 -0.57994,-0.29023 -0.1933,-0.44643 -1.64313,-3.49331 -1.89443,-3.6384 -0.0967,-0.0558 -2.16508,0.17857 -2.39705,0.17856 -0.058,0.0111 -0.0773,0.067 -0.0773,0.11161 0,0.37946 0.81191,3.10268 0.98589,3.64955 -0.23197,0.22321 -0.42529,0.5134 -0.57994,0.82589 -0.38662,-0.17851 -2.88032,-1.30581 -2.88032,-0.97099 l 0,3.125 c 0,0.33482 2.4937,2.08706 2.88032,2.35492 0.15465,0.51339 0.34797,1.00447 0.57994,1.49554 -0.17398,0.34598 -0.98589,2.13169 -0.98589,2.51115 0,0.0447 0.0194,0.12279 0.0773,0.2009 0.23197,0.29018 2.30039,2.91296 2.39705,2.96876 0.2513,0.14509 1.70113,-1.24999 1.89443,-1.47321 0.19332,0.13396 0.38662,0.26781 0.57994,0.37942 0.19331,0.1116 0.38662,0.20086 0.57993,0.29023 0.19331,0.44643 1.64313,3.51563 1.89444,3.66072 0.0967,0.0558 2.16507,-0.17857 2.39704,-0.20089 0.058,-0.0111 0.0773,-0.0446 0.0773,-0.1116 0,-0.40178 -0.8119,-3.10268 -0.98588,-3.64955 0.23197,-0.22322 0.42528,-0.49107 0.57993,-0.8259 0.38662,0.17862 2.88032,1.30581 2.88032,0.971 l 0,-3.125 z m 0,-22.85715 c 0,-0.33481 -2.4937,-2.08706 -2.88032,-2.35491 -0.15465,-0.49108 -0.34796,-1.00446 -0.57993,-1.49554 0.17398,-0.34598 0.98588,-2.10937 0.98588,-2.51116 0,-0.0446 -0.0194,-0.12278 -0.0773,-0.2009 -0.23197,-0.29018 -2.30038,-2.89063 -2.39704,-2.94643 l -0.11599,-0.0224 c -0.65725,0.37946 -1.23718,0.91518 -1.77845,1.47321 -0.19331,-0.13395 -0.38662,-0.26781 -0.57993,-0.37941 -0.19332,-0.11161 -0.38662,-0.20087 -0.57994,-0.29023 -0.1933,-0.44643 -1.64313,-3.49332 -1.89443,-3.63841 -0.0967,-0.0558 -2.16508,0.17857 -2.39705,0.17857 -0.058,0.0111 -0.0773,0.067 -0.0773,0.1116 0,0.37947 0.81191,3.10269 0.98589,3.64956 -0.23197,0.22322 -0.42529,0.51339 -0.57994,0.82589 -0.38662,-0.17862 -2.88032,-1.30581 -2.88032,-0.971 l 0,3.125 c 0,0.33483 2.4937,2.08706 2.88032,2.35493 0.15465,0.51339 0.34797,1.00447 0.57994,1.49554 -0.17398,0.34598 -0.98589,2.13169 -0.98589,2.51115 0,0.0446 0.0194,0.12278 0.0773,0.2009 0.23197,0.29017 2.30039,2.91295 2.39705,2.96875 0.2513,0.14509 1.70113,-1.24998 1.89443,-1.4732 0.19332,0.13396 0.38662,0.26781 0.57994,0.37942 0.19331,0.11161 0.38662,0.20087 0.57993,0.29023 0.19331,0.44643 1.64313,3.51562 1.89444,3.66071 0.0967,0.0558 2.16507,-0.17857 2.39704,-0.20088 0.058,-0.0111 0.0773,-0.0446 0.0773,-0.1116 0,-0.40178 -0.8119,-3.10268 -0.98588,-3.64955 0.23197,-0.22322 0.42528,-0.49107 0.57993,-0.8259 0.38662,0.17852 2.88032,1.30581 2.88032,0.97099 l 0,-3.125 z" />
      <path
         style="fill:#ececec;fill-opacity:1;fill-rule:evenodd;stroke:#595959;stroke-width:1px;stroke-linecap:butt;stroke-linejoin:miter;stroke-opacity:1"
         d="M 304.20551,283.32333 365.57738,354.18947 334.89145,371.906 258.1766,309.89813 Z"
         id="path4184" />
      <path
         style="fill:none;fill-rule:evenodd;stroke:#000000;stroke-width:2;stroke-linecap:butt;stroke-linejoin:miter;stroke-miterlimit:4;stroke-dasharray:none;stroke-opacity:1"
         d="m 258.1766,398.48081 0,-88.58268 46.02891,-26.5748 61.37188,70.86614 0,53.14961 -30.68594,17.71653 z"
         id="path4175" />
    </g>
  </g>
</svg>
