<svg xmlns="http://www.w3.org/2000/svg" viewBox="0 0 98.105 114.922" height="122.584" width="104.645"><g transform="translate(-159.52 -492.044)"><path d="M160.52 585.566v-18.283l35.37 20.359v18.283z" fill="#cccdcf" fill-rule="evenodd" stroke="#575757"/><path d="M195.89 587.641l48.052-7.3v18.284l-48.053 7.3z" fill="#b4b4b6" fill-rule="evenodd" stroke="#575757"/><path d="M243.941 580.342l12.683-27.66v18.284l-12.683 27.66z" fill="#9e9ea1" fill-rule="evenodd" stroke="#575757"/><path d="M160.52 565.947v-18.284l35.37 20.36v18.283z" fill="#cccdcf" fill-rule="evenodd" stroke="#575757"/><path d="M195.89 568.022l48.052-7.3v18.284l-48.053 7.3z" fill="#b4b4b6" fill-rule="evenodd" stroke="#575757"/><path d="M243.941 560.722l12.683-27.658v18.283l-12.683 27.659z" fill="#9e9ea1" fill-rule="evenodd" stroke="#575757"/><path d="M160.52 565.947l35.37 20.359 48.051-7.3 12.683-27.66" fill="none" stroke="#000" stroke-width="2"/><path d="M160.52 546.327v-18.283l35.37 20.359v18.283z" fill="#cccdcf" fill-rule="evenodd" stroke="#575757"/><path d="M195.89 548.403l48.052-7.3v18.283l-48.053 7.3z" fill="#b4b4b6" fill-rule="evenodd" stroke="#575757"/><path d="M243.941 541.103l12.683-27.659v18.284l-12.683 27.658z" fill="#9e9ea1" fill-rule="evenodd" stroke="#575757"/><path d="M160.52 546.327l35.37 20.36 48.051-7.3 12.683-27.66" fill="none" stroke="#000" stroke-width="2"/><path transform="matrix(.28816 .16587 -.28568 .16444 223.647 423.214)" d="M329.218 429.246H206.474l-61.372-106.3 61.372-106.299h122.744l61.372 106.3z" fill="#ececec" stroke="#575757" stroke-width="3.248" stroke-linecap="round" stroke-linejoin="round"/><path d="M160.52 585.566v-57.522l12.681-27.659 48.053-7.3 35.37 20.36v57.521l-12.683 27.659-48.052 7.3z" fill="none" stroke="#000" stroke-width="2"/><ellipse cy="400.325" cx="641.163" transform="scale(1.22474 .7071) rotate(45)" rx="22.196" ry="22.058" fill="#707070"/><path d="M189.452 521.496l20.396-4.316.355-.419q.71-.838.627-1.51-.07-.665-1.131-1.278-.89-.513-2.016-.904l4.048-2.337q.65.238 1.471.651.823.414 1.26.667 2.68 1.547 3.059 3.045.391 1.49-1.303 3.586l-5.807 7.121q-.749.938-1.037 1.502-.261.565-.14.94.12.374.824.78.49.283 1.127.498l-3.731 2.154q-.464-.085-1.604-.575-1.126-.484-1.723-.828-1.646-.95-1.916-2.126-.258-1.17 1.016-2.808l1.59-1.99q.92-1.083 1.854-1.853l-.106-.06q-1.834.752-3.155 1.07l-8.572 2.1-5.386-3.11z" style="line-height:125%;-inkscape-font-specification:'Open Sans Ultra-Bold'" font-weight="800" font-family="Open Sans" letter-spacing="0" word-spacing="0" fill="#fff"/></g></svg>