<svg xmlns="http://www.w3.org/2000/svg" width="113.421" height="176.157" viewBox="0 0 106.332 165.147"><g transform="translate(-54.235 -484.278)"><path d="M61.372 609.449v-106.3l61.372 35.434v106.299z" fill="#cecece" fill-rule="evenodd" stroke="#595959"/><path d="M122.744 538.583l30.686-17.717v106.3l-30.686 17.716z" fill="#b6b7b8" fill-rule="evenodd" stroke="#595959"/><path d="M61.372 503.15l30.686-17.717 61.372 35.433-30.686 17.717z" fill="#ececec" fill-rule="evenodd" stroke="#595959"/><path d="M128.881 648.425l-6.137-10.63-6.137 10.63z" fill="#cecece" fill-rule="evenodd" stroke="#595959"/><path d="M153.43 620.079l6.137 3.543v7.087z" fill="#b6b7b8" fill-rule="evenodd" stroke="#595959"/><path d="M61.372 602.362l-6.137 3.544v7.086z" fill="#cecece" fill-rule="evenodd" stroke="#595959"/><path d="M122.744 637.795l30.686-17.716 6.137 10.63-30.686 17.716z" fill="#b6b7b8" fill-rule="evenodd" stroke="#595959"/><path d="M122.744 637.795l-61.372-35.433-6.137 10.63 61.372 35.433z" fill="#cecece" fill-rule="evenodd" stroke="#595959"/><path d="M61.372 503.15v99.212l-6.137 3.544v7.086l61.372 35.433h12.274l30.686-17.716v-7.087l-6.137-3.543v-99.213l-61.372-35.433z" fill="none" stroke="#000" stroke-width="2"/><ellipse cx="106.299" cy="520.866" transform="skewY(30) scale(.86603 1)" rx="26.564" ry="26.399" fill="#595959" fill-rule="evenodd"/><path style="line-height:125%" d="M98.986 580.855c-1.624-.937-3.112-1.065-4.214-.525l-6.96-8.011c.02-.233.04-.488.04-.732s-.02-.521-.04-.776l6.96.025c1.102 1.812 2.59 3.403 4.214 4.34 3.422 1.976 6.186.4 6.186-3.526 0-3.927-2.764-8.695-6.186-10.67-3.422-1.976-6.186-.4-6.186 3.527 0 .244.02.521.039.776l-6.96-.025c-1.101-1.812-2.59-3.403-4.214-4.34-3.421-1.976-6.185-.4-6.185 3.526 0 3.927 2.764 8.695 6.185 10.67 1.624.937 3.113 1.065 4.215.525l6.959 8.011c-.02.233-.039.488-.039.732 0 3.926 2.764 8.694 6.186 10.67 3.422 1.975 6.186.399 6.186-3.527s-2.764-8.695-6.186-10.67z" font-weight="400" font-family="sans-serif" letter-spacing="0" word-spacing="0" fill="#fff"/></g></svg>