<svg xmlns="http://www.w3.org/2000/svg" viewBox="0 0 187.873 144.958" height="154.622" width="200.398"><g transform="translate(-86.064 -282.74)"><path d="M118.607 372.678v-53.15l61.372 35.433v53.15z" fill="#cccdcf" fill-rule="evenodd" stroke="#575757"/><path d="M180.041 355.024l61.372-35.433v53.15l-61.372 35.432z" fill="#b4b4b6" fill-rule="evenodd" stroke="#575757"/><path d="M241.36 337.196l30.687 35.434-46.03 8.858zM195.3 399.124l-15.343 26.574v-53.15zM179.957 425.698l-15.343-26.574 15.343-26.575zM133.982 381.711l-46.029-8.858 30.686-35.433z" fill="#cccdcf" fill-rule="evenodd" stroke="#575757"/><path d="M118.804 319.328l61.372-35.433 61.372 35.433-61.372 35.433z" fill="#ececec" fill-rule="evenodd" stroke="#575757"/><ellipse cx="423.194" cy="215.65" transform="matrix(.86603 .5 -.86603 .5 0 0)" rx="27.274" ry="27.103" fill="#707070"/><path style="line-height:125%" d="M174.178 316.211c.342-1.106 1.257-2.142 2.627-2.934.332-.19.693-.365 1.07-.53-.877-.245-1.664-.56-2.361-.963-2.046-1.181-2.342-2.83-2.66-3.013-1.924-1.111-5.974 1.28-7.194 1.984-1.671.965-.97 2.204.546 3.079l2.03 1.172c2.22-.11 4.321.322 5.942 1.205zm6.636 14.907c3.403-1.965 7.825-5.445 3.385-8.008-.515-.298-4.486-.174-7.517-1.923-3.03-1.75-2.816-4.043-3.331-4.34-4.44-2.564-10.467-.01-13.87 1.954-2.44 1.408-2.279 3.187.146 4.587l13.242 7.646c2.424 1.4 5.506 1.492 7.945.084zm3.713-20.059c2.123-1.226 2.112-3.231-.025-4.465-2.136-1.233-5.61-1.24-7.733-.014-2.123 1.226-2.112 3.232.024 4.465 2.137 1.233 5.61 1.24 7.734.014zm4.884 9.497c3.193-1.843 3.176-4.843-.036-6.698-3.212-1.854-8.408-1.864-11.6-.02-3.192 1.842-3.176 4.842.036 6.697 3.213 1.854 8.408 1.863 11.6.02zm5.34 6.994c1.22-.704 5.36-3.042 3.436-4.153-.318-.184-3.174-.355-5.219-1.536-.697-.402-1.243-.857-1.669-1.363a8.656 8.656 0 0 1-.918.617c-1.37.791-3.165 1.32-5.082 1.517 1.53.936 2.278 2.15 2.088 3.431l2.03 1.172c1.516.875 3.663 1.28 5.334.315zm7.23-6.414c2.123-1.225 2.112-3.231-.024-4.464-2.136-1.234-5.61-1.24-7.733-.014-2.123 1.225-2.113 3.23.024 4.464 2.136 1.234 5.61 1.24 7.733.014z" font-weight="400" font-family="sans-serif" letter-spacing="0" word-spacing="0" fill="#fff"/><path d="M226.018 381.488l46.029-8.858-30.686-35.434.187-17.868-61.372-35.433-61.372 35.433-.165 18.092-30.686 35.433 46.03 8.858 30.631 17.413 15.343 26.574 15.343-26.574z" fill="none" stroke="#000" stroke-width="2"/></g></svg>