<?xml version="1.0" encoding="UTF-8" standalone="no"?>
<svg
   xmlns:dc="http://purl.org/dc/elements/1.1/"
   xmlns:cc="http://creativecommons.org/ns#"
   xmlns:rdf="http://www.w3.org/1999/02/22-rdf-syntax-ns#"
   xmlns:svg="http://www.w3.org/2000/svg"
   xmlns="http://www.w3.org/2000/svg"
   version="1.1"
   id="svg4197"
   viewBox="0 0 98.104578 114.92224"
   height="32.433609mm"
   width="27.687292mm">
  <title
     id="title4844">Isometric Cloud Icons - AWS Lambda</title>
  <defs
     id="defs4199" />
  <metadata
     id="metadata4202">
    <rdf:RDF>
      <cc:Work
         rdf:about="">
        <dc:format>image/svg+xml</dc:format>
        <dc:type
           rdf:resource="http://purl.org/dc/dcmitype/StillImage" />
        <dc:title>Isometric Cloud Icons - AWS Lambda</dc:title>
        <dc:date>2016-04-28</dc:date>
        <dc:creator>
          <cc:Agent>
            <dc:title>Daniel Joos</dc:title>
          </cc:Agent>
        </dc:creator>
      </cc:Work>
    </rdf:RDF>
  </metadata>
  <g
     id="g4150">
    <g
       transform="translate(-159.51913,-492.04394)"
       id="g4870">
      <path
         id="path4195"
         d="m 160.51914,585.56608 0,-18.28346 35.37009,20.35897 0,18.28346 z"
         style="fill:#cccdcf;fill-opacity:1;fill-rule:evenodd;stroke:#575757;stroke-width:1px;stroke-linecap:butt;stroke-linejoin:miter;stroke-opacity:1" />
      <path
         id="path4197"
         d="m 195.88921,587.6415 48.05231,-7.29976 0,18.28346 -48.05229,7.29985 z"
         style="fill:#b4b4b6;fill-opacity:1;fill-rule:evenodd;stroke:#575757;stroke-width:1px;stroke-linecap:butt;stroke-linejoin:miter;stroke-opacity:1" />
      <path
         id="path4199"
         d="m 243.9415,580.34165 12.68222,-27.65873 0,18.28346 -12.68222,27.65873 z"
         style="fill:#9e9ea1;fill-opacity:1;fill-rule:evenodd;stroke:#575757;stroke-width:1px;stroke-linecap:butt;stroke-linejoin:miter;stroke-opacity:1" />
      <path
         id="path4195-6"
         d="m 160.51913,565.94667 0,-18.28346 35.37009,20.35897 0,18.28346 z"
         style="fill:#cccdcf;fill-opacity:1;fill-rule:evenodd;stroke:#575757;stroke-width:1px;stroke-linecap:butt;stroke-linejoin:miter;stroke-opacity:1" />
      <path
         id="path4197-5"
         d="m 195.8892,568.02209 48.05231,-7.29976 0,18.28346 -48.05229,7.29985 z"
         style="fill:#b4b4b6;fill-opacity:1;fill-rule:evenodd;stroke:#575757;stroke-width:1px;stroke-linecap:butt;stroke-linejoin:miter;stroke-opacity:1" />
      <path
         id="path4199-7"
         d="m 243.94149,560.72224 12.68222,-27.65873 0,18.28346 -12.68222,27.65873 z"
         style="fill:#9e9ea1;fill-opacity:1;fill-rule:evenodd;stroke:#575757;stroke-width:1px;stroke-linecap:butt;stroke-linejoin:miter;stroke-opacity:1" />
      <path
         id="path4230-1"
         d="m 160.51911,565.94658 35.37009,20.35897 48.05227,-7.29994 12.68222,-27.65873"
         style="fill:none;fill-rule:evenodd;stroke:#000000;stroke-width:2.00000024;stroke-linecap:butt;stroke-linejoin:miter;stroke-miterlimit:4;stroke-dasharray:none;stroke-opacity:1" />
      <path
         id="path4195-3"
         d="m 160.51913,546.32733 0,-18.28346 35.37009,20.35897 0,18.28346 z"
         style="fill:#cccdcf;fill-opacity:1;fill-rule:evenodd;stroke:#575757;stroke-width:1px;stroke-linecap:butt;stroke-linejoin:miter;stroke-opacity:1" />
      <path
         id="path4197-51"
         d="m 195.8892,548.40275 48.05231,-7.29976 0,18.28346 -48.05229,7.29985 z"
         style="fill:#b4b4b6;fill-opacity:1;fill-rule:evenodd;stroke:#575757;stroke-width:1px;stroke-linecap:butt;stroke-linejoin:miter;stroke-opacity:1" />
      <path
         id="path4199-9"
         d="m 243.94149,541.1029 12.68222,-27.65873 0,18.28346 -12.68222,27.65873 z"
         style="fill:#9e9ea1;fill-opacity:1;fill-rule:evenodd;stroke:#575757;stroke-width:1px;stroke-linecap:butt;stroke-linejoin:miter;stroke-opacity:1" />
      <path
         id="path4230-9"
         d="m 160.51911,546.32724 35.37009,20.35897 48.05227,-7.29994 12.68222,-27.65873"
         style="fill:none;fill-rule:evenodd;stroke:#000000;stroke-width:2.00000024;stroke-linecap:butt;stroke-linejoin:miter;stroke-miterlimit:4;stroke-dasharray:none;stroke-opacity:1" />
      <path
         transform="matrix(0.28816202,0.16586561,-0.28567703,0.16443522,223.64674,423.21377)"
         d="m 329.21788,429.24563 -122.74376,-1e-5 -61.37187,-106.29921 61.37188,-106.29922 122.74376,1e-5 61.37188,106.29922 z"
         id="path4163-6"
         style="fill:#ececec;fill-opacity:1;stroke:#575757;stroke-width:3.24839783;stroke-linecap:round;stroke-linejoin:round;stroke-miterlimit:4;stroke-dasharray:none;stroke-dashoffset:0;stroke-opacity:1" />
      <path
         id="path4287"
         d="m 160.51912,585.56599 0,-57.5222 12.68221,-27.65882 48.05229,-7.29985 35.37008,20.35897 0,57.5222 -12.68222,27.65873 -48.05227,7.29994 z"
         style="fill:none;fill-rule:evenodd;stroke:#000000;stroke-width:2.00000024;stroke-linecap:butt;stroke-linejoin:miter;stroke-miterlimit:4;stroke-dasharray:none;stroke-opacity:1" />
      <ellipse
         cy="400.32523"
         cx="641.16272"
         id="path4416-3"
         style="fill:#707070;fill-opacity:1;stroke:none;stroke-width:2;stroke-linecap:round;stroke-linejoin:round;stroke-miterlimit:4;stroke-dasharray:none;stroke-dashoffset:0;stroke-opacity:1"
         transform="matrix(0.8660254,0.5,-0.8660254,0.5,0,0)"
         rx="22.196323"
         ry="22.057783" />
      <path
         d="m 189.4518,521.49589 20.39636,-4.31542 0.35481,-0.41932 q 0.70961,-0.83863 0.62661,-1.51071 -0.0697,-0.66443 -1.13106,-1.27719 -0.88887,-0.51319 -2.01515,-0.90465 l 4.04748,-2.33681 q 0.64933,0.23788 1.47154,0.65169 0.82223,0.41379 1.26003,0.66656 2.67989,1.54723 3.05832,3.0445 0.3916,1.48964 -1.30309,3.58637 l -5.80693,7.12115 q -0.74876,0.93782 -1.03665,1.50234 -0.26145,0.56455 -0.14039,0.93892 0.12105,0.37436 0.82419,0.78032 0.49088,0.28341 1.12685,0.49836 l -3.73106,2.15413 q -0.46334,-0.0848 -1.60338,-0.57557 -1.12676,-0.48309 -1.72377,-0.82776 -1.64507,-0.94979 -1.91595,-2.12617 -0.25763,-1.16871 1.01634,-2.80806 l 1.58945,-1.99001 q 0.9199,-1.0826 1.85473,-1.8521 l -0.10614,-0.0613 q -1.83423,0.75261 -3.15502,1.07092 l -8.5718,2.09956 -5.3863,-3.10978 z"
         style="font-style:normal;font-variant:normal;font-weight:800;font-stretch:normal;font-size:medium;line-height:125%;font-family:'Open Sans';-inkscape-font-specification:'Open Sans Ultra-Bold';letter-spacing:0px;word-spacing:0px;fill:#ffffff;fill-opacity:1;stroke:none;stroke-width:1px;stroke-linecap:butt;stroke-linejoin:miter;stroke-opacity:1"
         id="path4423-3" />
    </g>
  </g>
</svg>
