<svg xmlns="http://www.w3.org/2000/svg" width="100.455" height="146.708" viewBox="0 0 94.177 137.538"><g transform="translate(-804.34 -452.164)"><path d="M805.204 490.236l.177 82.024 92.133.58v-82.146z" fill="#848586" fill-rule="evenodd" stroke="#6b6b6b"/><path d="M805.204 490.236l.177 16.087 27.4 16.44-.177-16.44zM870.735 506.183v16.21l-37.954.37-.145-16.62z" fill="#cecece" fill-rule="evenodd" stroke="#000"/><path d="M897.514 490.694v16.209l-26.78 15.49v-16.21z" fill="#b6b7b8" fill-rule="evenodd" stroke="#000"/><path d="M870.769 522.392l26.745-15.49-.194-38.153-27.1-15.545-38.1-.04-26.78 15.49.04 37.669 27.29 16.03z" fill="none" stroke="#000" stroke-width="2"/><path transform="matrix(.60835 .3504 -.60364 .34768 1039.82 228.969)" d="M256.632 538.689l-31.37 31.501-44.456.093-31.502-31.37-.093-44.456 31.37-31.502 44.457-.093 31.501 31.37z" fill="#ececec" stroke="#000" stroke-width="1.538" stroke-linecap="round" stroke-linejoin="round"/><path d="M805.204 512.215l.177 16.087 27.4 16.44-.177-16.44zM870.735 528.162v16.21l-37.954.37-.145-16.62z" fill="#cecece" fill-rule="evenodd" stroke="#000"/><path d="M897.514 512.673v16.209l-26.78 15.49v-16.21z" fill="#b6b7b8" fill-rule="evenodd" stroke="#000"/><path d="M805.534 512.578l-.153 15.724 27.4 16.44 37.954-.37 26.779-15.49v-16.21l-26.78 15.49-38.098-.04z" fill="none" stroke="#000" stroke-width="2"/><path d="M805.204 534.194l.177 16.087 27.4 16.44-.177-16.44zM870.735 550.141v16.209l-37.954.371-.145-16.62z" fill="#cecece" fill-rule="evenodd" stroke="#000"/><path d="M897.514 534.652v16.209l-26.78 15.489v-16.209z" fill="#b6b7b8" fill-rule="evenodd" stroke="#000"/><path d="M805.534 534.557l-.153 15.724 27.4 16.44 37.954-.371 26.779-15.49v-16.208l-26.78 15.489-38.098-.04z" fill="none" stroke="#000" stroke-width="2"/><path d="M805.204 556.173l.177 16.087 27.4 16.44-.177-16.44zM870.735 572.12v16.209l-37.954.371-.145-16.62z" fill="#cecece" fill-rule="evenodd" stroke="#000"/><path d="M897.514 556.63v16.21l-26.78 15.489v-16.21z" fill="#b6b7b8" fill-rule="evenodd" stroke="#000"/><path d="M805.534 556.536l-.153 15.724 27.4 16.44 37.954-.371 26.779-15.49v-16.208l-26.78 15.489-38.098-.04z" fill="none" stroke="#000" stroke-width="2"/><ellipse ry="23.235" rx="23.381" transform="matrix(.86603 .5 -.86603 .5 0 0)" cy="-11.908" cx="971.256" fill="#707070"/><path d="M852.943 478.809c-3.546-2.048-6.473-4.468-7.059-6.375l-1.99 1.15c-1.651.953 1.056 4.07 6.052 6.955 4.996 2.885 10.396 4.448 12.047 3.494l1.99-1.149c-3.302-.338-7.493-2.028-11.04-4.075zM843.95 484c-3.547-2.048-6.473-4.468-7.059-6.374l-1.99 1.149c-1.652.953 1.055 4.071 6.052 6.956 4.996 2.884 10.396 4.447 12.047 3.494l1.99-1.15c-3.302-.338-7.493-2.027-11.04-4.075zm4.497-2.596c-3.547-2.048-6.473-4.468-7.06-6.374l-1.99 1.149c-1.65.953 1.056 4.07 6.052 6.955 4.996 2.885 10.396 4.448 12.047 3.494l1.991-1.149c-3.302-.338-7.493-2.028-11.04-4.075zm13.49-7.789c-4.997-2.884-10.397-4.447-12.048-3.494l-1.499.866c-1.65.953 1.056 4.07 6.052 6.955 4.996 2.885 10.397 4.448 12.048 3.494l1.498-.865c1.652-.953-1.055-4.071-6.051-6.956z" style="line-height:125%" font-weight="400" font-family="sans-serif" letter-spacing="0" word-spacing="0" fill="#fff"/></g></svg>