<svg xmlns="http://www.w3.org/2000/svg" width="133.06" height="172.542" viewBox="0 0 124.744 161.758"><path d="M1 125.17V36.588L62.372 72.02v88.583z" fill="#333" fill-rule="evenodd" stroke="#595959"/><path d="M62.372 72.02l61.372-35.432v88.582l-61.372 35.434z" fill="#262626" fill-rule="evenodd" stroke="#595959"/><path d="M1 36.588L62.372 1.155l61.372 35.433L62.372 72.02z" fill="#3c3c3c" fill-rule="evenodd" stroke="#595959"/><path d="M62.372 160.604L1 125.17V36.588L62.372 1.155l61.372 35.433v88.582z" fill="none" stroke="#000" stroke-width="2"/><path d="M56.686 141.513a2.24 1.293 59.69 0 1-1.589.906 2.24 1.293 59.69 0 1-1.588-2.74 2.24 1.293 59.69 0 1 1.588-.906 2.24 1.293 59.69 0 1 1.589 2.74zm-5.853-3.379a2.24 1.293 59.69 0 1-1.589.906 2.24 1.293 59.69 0 1-1.588-2.74 2.24 1.293 59.69 0 1 1.588-.906 2.24 1.293 59.69 0 1 1.59 2.74zm-5.853-3.38a2.24 1.293 59.69 0 1-1.588.907 2.24 1.293 59.69 0 1-1.589-2.74 2.24 1.293 59.69 0 1 1.589-.906 2.24 1.293 59.69 0 1 1.588 2.74zm-5.853-3.378a2.24 1.293 59.69 0 1-1.588.905 2.24 1.293 59.69 0 1-1.589-2.74 2.24 1.293 59.69 0 1 1.589-.905 2.24 1.293 59.69 0 1 1.588 2.74zm-11.705-6.759a2.24 1.293 59.69 0 1-1.589.906 2.24 1.293 59.69 0 1-1.589-2.74 2.24 1.293 59.69 0 1 1.59-.906 2.24 1.293 59.69 0 1 1.588 2.74zm-11.706-6.758a2.24 1.293 59.69 0 1-1.589.906 2.24 1.293 59.69 0 1-1.588-2.74 2.24 1.293 59.69 0 1 1.588-.906 2.24 1.293 59.69 0 1 1.589 2.74zm17.559 10.138a2.24 1.293 59.69 0 1-1.59.905 2.24 1.293 59.69 0 1-1.588-2.74 2.24 1.293 59.69 0 1 1.589-.906 2.24 1.293 59.69 0 1 1.589 2.74zm-11.706-6.759a2.24 1.293 59.69 0 1-1.589.906 2.24 1.293 59.69 0 1-1.588-2.74 2.24 1.293 59.69 0 1 1.588-.906 2.24 1.293 59.69 0 1 1.589 2.74zM9.863 114.48a2.24 1.293 59.69 0 1-1.588.906 2.24 1.293 59.69 0 1-1.59-2.74 2.24 1.293 59.69 0 1 1.59-.906 2.24 1.293 59.69 0 1 1.588 2.74zm43.897 20.21a2.24 1.293 59.69 0 1-1.59.906 2.24 1.293 59.69 0 1-1.588-2.74 2.24 1.293 59.69 0 1 1.589-.906 2.24 1.293 59.69 0 1 1.589 2.74zm-5.853-3.379a2.24 1.293 59.69 0 1-1.589.906 2.24 1.293 59.69 0 1-1.589-2.74 2.24 1.293 59.69 0 1 1.589-.906 2.24 1.293 59.69 0 1 1.589 2.74zm-5.853-3.379a2.24 1.293 59.69 0 1-1.589.906 2.24 1.293 59.69 0 1-1.588-2.74 2.24 1.293 59.69 0 1 1.588-.906 2.24 1.293 59.69 0 1 1.589 2.74zm-11.706-6.758a2.24 1.293 59.69 0 1-1.588.906 2.24 1.293 59.69 0 1-1.59-2.74 2.24 1.293 59.69 0 1 1.59-.906 2.24 1.293 59.69 0 1 1.588 2.74zm-11.706-6.758a2.24 1.293 59.69 0 1-1.588.905 2.24 1.293 59.69 0 1-1.589-2.74 2.24 1.293 59.69 0 1 1.589-.905 2.24 1.293 59.69 0 1 1.588 2.74zm17.559 10.137a2.24 1.293 59.69 0 1-1.589.906 2.24 1.293 59.69 0 1-1.588-2.74 2.24 1.293 59.69 0 1 1.588-.906 2.24 1.293 59.69 0 1 1.589 2.74zm-11.706-6.758a2.24 1.293 59.69 0 1-1.588.906 2.24 1.293 59.69 0 1-1.589-2.74 2.24 1.293 59.69 0 1 1.589-.906 2.24 1.293 59.69 0 1 1.588 2.74zm-11.705-6.758a2.24 1.293 59.69 0 1-1.589.905 2.24 1.293 59.69 0 1-1.589-2.74 2.24 1.293 59.69 0 1 1.589-.906 2.24 1.293 59.69 0 1 1.589 2.74zm43.896 20.21a2.24 1.293 59.69 0 1-1.589.906 2.24 1.293 59.69 0 1-1.588-2.74 2.24 1.293 59.69 0 1 1.588-.906 2.24 1.293 59.69 0 1 1.589 2.74zm-5.853-3.379a2.24 1.293 59.69 0 1-1.589.906 2.24 1.293 59.69 0 1-1.588-2.74 2.24 1.293 59.69 0 1 1.588-.906 2.24 1.293 59.69 0 1 1.59 2.74zm-5.853-3.38a2.24 1.293 59.69 0 1-1.588.907 2.24 1.293 59.69 0 1-1.589-2.74 2.24 1.293 59.69 0 1 1.589-.906 2.24 1.293 59.69 0 1 1.588 2.74zm-5.853-3.378a2.24 1.293 59.69 0 1-1.588.905 2.24 1.293 59.69 0 1-1.589-2.74 2.24 1.293 59.69 0 1 1.589-.905 2.24 1.293 59.69 0 1 1.588 2.74zm-11.705-6.759a2.24 1.293 59.69 0 1-1.589.906 2.24 1.293 59.69 0 1-1.589-2.74 2.24 1.293 59.69 0 1 1.59-.906 2.24 1.293 59.69 0 1 1.588 2.74zm-11.706-6.758a2.24 1.293 59.69 0 1-1.589.906 2.24 1.293 59.69 0 1-1.588-2.74 2.24 1.293 59.69 0 1 1.588-.906 2.24 1.293 59.69 0 1 1.589 2.74zm17.559 10.138a2.24 1.293 59.69 0 1-1.59.905 2.24 1.293 59.69 0 1-1.588-2.74 2.24 1.293 59.69 0 1 1.589-.906 2.24 1.293 59.69 0 1 1.589 2.74zm-11.706-6.759a2.24 1.293 59.69 0 1-1.589.906 2.24 1.293 59.69 0 1-1.588-2.74 2.24 1.293 59.69 0 1 1.588-.906 2.24 1.293 59.69 0 1 1.589 2.74zm-11.706-6.758a2.24 1.293 59.69 0 1-1.588.906 2.24 1.293 59.69 0 1-1.59-2.74 2.24 1.293 59.69 0 1 1.59-.906 2.24 1.293 59.69 0 1 1.588 2.74zm108.195 8.432a1.293 2.24 30.31 0 1-1.589 2.74 1.293 2.24 30.31 0 1-1.588-.906 1.293 2.24 30.31 0 1 1.588-2.74 1.293 2.24 30.31 0 1 1.589.906zm-5.853 3.379a1.293 2.24 30.31 0 1-1.589 2.74 1.293 2.24 30.31 0 1-1.588-.906 1.293 2.24 30.31 0 1 1.588-2.74 1.293 2.24 30.31 0 1 1.589.906zm-5.853 3.379a1.293 2.24 30.31 0 1-1.589 2.74 1.293 2.24 30.31 0 1-1.588-.906 1.293 2.24 30.31 0 1 1.588-2.74 1.293 2.24 30.31 0 1 1.59.906zm-5.853 3.379a1.293 2.24 30.31 0 1-1.588 2.74 1.293 2.24 30.31 0 1-1.589-.906 1.293 2.24 30.31 0 1 1.589-2.74 1.293 2.24 30.31 0 1 1.588.906zm-11.705 6.758a1.293 2.24 30.31 0 1-1.589 2.74 1.293 2.24 30.31 0 1-1.589-.905 1.293 2.24 30.31 0 1 1.589-2.74 1.293 2.24 30.31 0 1 1.589.905zM77.088 136.3a1.293 2.24 30.31 0 1-1.589 2.74 1.293 2.24 30.31 0 1-1.588-.906 1.293 2.24 30.31 0 1 1.588-2.74 1.293 2.24 30.31 0 1 1.589.906zm17.558-10.138a1.293 2.24 30.31 0 1-1.588 2.74 1.293 2.24 30.31 0 1-1.589-.905 1.293 2.24 30.31 0 1 1.589-2.74 1.293 2.24 30.31 0 1 1.588.905zm-11.705 6.758a1.293 2.24 30.31 0 1-1.589 2.74 1.293 2.24 30.31 0 1-1.589-.905 1.293 2.24 30.31 0 1 1.59-2.74 1.293 2.24 30.31 0 1 1.588.905zm-11.706 6.759a1.293 2.24 30.31 0 1-1.589 2.74 1.293 2.24 30.31 0 1-1.588-.906 1.293 2.24 30.31 0 1 1.588-2.74 1.293 2.24 30.31 0 1 1.59.906zm43.896-30.477a1.293 2.24 30.31 0 1-1.588 2.74 1.293 2.24 30.31 0 1-1.589-.905 1.293 2.24 30.31 0 1 1.589-2.74 1.293 2.24 30.31 0 1 1.588.905zm-5.852 3.38a1.293 2.24 30.31 0 1-1.59 2.74 1.293 2.24 30.31 0 1-1.588-.906 1.293 2.24 30.31 0 1 1.589-2.74 1.293 2.24 30.31 0 1 1.589.905zm-5.853 3.378a1.293 2.24 30.31 0 1-1.589 2.74 1.293 2.24 30.31 0 1-1.589-.905 1.293 2.24 30.31 0 1 1.59-2.74 1.293 2.24 30.31 0 1 1.588.905zm-11.706 6.76a1.293 2.24 30.31 0 1-1.589 2.74 1.293 2.24 30.31 0 1-1.588-.906 1.293 2.24 30.31 0 1 1.588-2.74 1.293 2.24 30.31 0 1 1.589.906zm-11.706 6.758a1.293 2.24 30.31 0 1-1.588 2.74 1.293 2.24 30.31 0 1-1.589-.906 1.293 2.24 30.31 0 1 1.589-2.74 1.293 2.24 30.31 0 1 1.588.906zm17.559-10.137a1.293 2.24 30.31 0 1-1.589 2.74 1.293 2.24 30.31 0 1-1.588-.906 1.293 2.24 30.31 0 1 1.588-2.74 1.293 2.24 30.31 0 1 1.589.906zm-11.706 6.758a1.293 2.24 30.31 0 1-1.588 2.74 1.293 2.24 30.31 0 1-1.59-.906 1.293 2.24 30.31 0 1 1.59-2.74 1.293 2.24 30.31 0 1 1.588.906zm-11.706 6.758a1.293 2.24 30.31 0 1-1.588 2.74 1.293 2.24 30.31 0 1-1.589-.905 1.293 2.24 30.31 0 1 1.589-2.74 1.293 2.24 30.31 0 1 1.588.905zm43.897-30.476a1.293 2.24 30.31 0 1-1.589 2.74 1.293 2.24 30.31 0 1-1.588-.906 1.293 2.24 30.31 0 1 1.588-2.74 1.293 2.24 30.31 0 1 1.589.906zm-5.853 3.379a1.293 2.24 30.31 0 1-1.589 2.74 1.293 2.24 30.31 0 1-1.588-.906 1.293 2.24 30.31 0 1 1.588-2.74 1.293 2.24 30.31 0 1 1.589.906zm-5.853 3.379a1.293 2.24 30.31 0 1-1.589 2.74 1.293 2.24 30.31 0 1-1.588-.906 1.293 2.24 30.31 0 1 1.588-2.74 1.293 2.24 30.31 0 1 1.59.906zm-5.853 3.379a1.293 2.24 30.31 0 1-1.588 2.74 1.293 2.24 30.31 0 1-1.589-.906 1.293 2.24 30.31 0 1 1.589-2.74 1.293 2.24 30.31 0 1 1.588.906zm-11.705 6.758a1.293 2.24 30.31 0 1-1.589 2.74 1.293 2.24 30.31 0 1-1.589-.905 1.293 2.24 30.31 0 1 1.589-2.74 1.293 2.24 30.31 0 1 1.589.905zm-11.706 6.759a1.293 2.24 30.31 0 1-1.589 2.74 1.293 2.24 30.31 0 1-1.588-.906 1.293 2.24 30.31 0 1 1.588-2.74 1.293 2.24 30.31 0 1 1.589.906zm17.558-10.138a1.293 2.24 30.31 0 1-1.588 2.74 1.293 2.24 30.31 0 1-1.589-.905 1.293 2.24 30.31 0 1 1.589-2.74 1.293 2.24 30.31 0 1 1.588.905zm-11.705 6.758a1.293 2.24 30.31 0 1-1.589 2.74 1.293 2.24 30.31 0 1-1.589-.905 1.293 2.24 30.31 0 1 1.59-2.74 1.293 2.24 30.31 0 1 1.588.905zm-11.706 6.759a1.293 2.24 30.31 0 1-1.589 2.74 1.293 2.24 30.31 0 1-1.588-.906 1.293 2.24 30.31 0 1 1.588-2.74 1.293 2.24 30.31 0 1 1.59.906z" fill="#595959"/></svg>