<?xml version="1.0" encoding="UTF-8" standalone="no"?>
<svg
   xmlns:dc="http://purl.org/dc/elements/1.1/"
   xmlns:cc="http://creativecommons.org/ns#"
   xmlns:rdf="http://www.w3.org/1999/02/22-rdf-syntax-ns#"
   xmlns:svg="http://www.w3.org/2000/svg"
   xmlns="http://www.w3.org/2000/svg"
   width="35.20546mm"
   height="45.651764mm"
   viewBox="0 0 124.74375 161.75822"
   id="svg4290"
   version="1.1">
  <title
     id="title4976">Isometric Cloud Icons - Black Box</title>
  <defs
     id="defs4292" />
  <metadata
     id="metadata4295">
    <rdf:RDF>
      <cc:Work
         rdf:about="">
        <dc:format>image/svg+xml</dc:format>
        <dc:type
           rdf:resource="http://purl.org/dc/dcmitype/StillImage" />
        <dc:title>Isometric Cloud Icons - Black Box</dc:title>
        <dc:date>2016-04-28</dc:date>
        <dc:creator>
          <cc:Agent>
            <dc:title>Daniel Joos</dc:title>
          </cc:Agent>
        </dc:creator>
      </cc:Work>
    </rdf:RDF>
  </metadata>
  <g
     id="layer1"
     transform="translate(-437.62812,-274.34024)">
    <g
       id="g5108">
      <path
         id="path4183"
         d="m 438.62812,399.51069 0,-88.58268 61.37188,35.43307 0,88.58268 z"
         style="fill:#333333;fill-opacity:1;fill-rule:evenodd;stroke:#595959;stroke-width:1px;stroke-linecap:butt;stroke-linejoin:miter;stroke-opacity:1" />
      <path
         id="path4185"
         d="m 500,346.36108 61.37188,-35.43307 0,88.58268 L 500,434.94376 Z"
         style="fill:#262626;fill-opacity:1;fill-rule:evenodd;stroke:#595959;stroke-width:1px;stroke-linecap:butt;stroke-linejoin:miter;stroke-opacity:1" />
      <path
         id="path4187"
         d="M 438.62812,310.92801 500,275.49494 561.37188,310.92801 500,346.36108 Z"
         style="fill:#3c3c3c;fill-opacity:1;fill-rule:evenodd;stroke:#595959;stroke-width:1px;stroke-linecap:butt;stroke-linejoin:miter;stroke-opacity:1" />
      <path
         id="path4189"
         d="m 500,434.94376 -61.37188,-35.43307 0,-88.58268 L 500,275.49494 l 61.37188,35.43307 0,88.58268 z"
         style="fill:none;fill-rule:evenodd;stroke:#000000;stroke-width:2;stroke-linecap:butt;stroke-linejoin:miter;stroke-miterlimit:4;stroke-dasharray:none;stroke-opacity:1" />
      <path
         d="m 494.31406,415.85338 a 2.2396819,1.2930302 59.68934 0 1 -1.58863,0.90574 2.2396819,1.2930302 59.68934 0 1 -1.58863,-2.74013 2.2396819,1.2930302 59.68934 0 1 1.58863,-0.90575 2.2396819,1.2930302 59.68934 0 1 1.58863,2.74014 z m -5.85285,-3.37914 a 2.2396819,1.2930302 59.68934 0 1 -1.58863,0.90574 2.2396819,1.2930302 59.68934 0 1 -1.58862,-2.74013 2.2396819,1.2930302 59.68934 0 1 1.58862,-0.90575 2.2396819,1.2930302 59.68934 0 1 1.58863,2.74014 z m -5.85284,-3.37914 a 2.2396819,1.2930302 59.68934 0 1 -1.58863,0.90574 2.2396819,1.2930302 59.68934 0 1 -1.58863,-2.74013 2.2396819,1.2930302 59.68934 0 1 1.58863,-0.90575 2.2396819,1.2930302 59.68934 0 1 1.58863,2.74014 z m -5.85284,-3.37914 a 2.2396819,1.2930302 59.68934 0 1 -1.58863,0.90574 2.2396819,1.2930302 59.68934 0 1 -1.58863,-2.74013 2.2396819,1.2930302 59.68934 0 1 1.58863,-0.90575 2.2396819,1.2930302 59.68934 0 1 1.58863,2.74014 z m -11.70569,-6.75828 a 2.2396819,1.2930302 59.68934 0 1 -1.58863,0.90574 2.2396819,1.2930302 59.68934 0 1 -1.58863,-2.74013 2.2396819,1.2930302 59.68934 0 1 1.58863,-0.90575 2.2396819,1.2930302 59.68934 0 1 1.58863,2.74014 z m -11.70568,-6.75828 a 2.2396819,1.2930302 59.68934 0 1 -1.58863,0.90574 2.2396819,1.2930302 59.68934 0 1 -1.58863,-2.74014 2.2396819,1.2930302 59.68934 0 1 1.58863,-0.90574 2.2396819,1.2930302 59.68934 0 1 1.58863,2.74014 z m 17.55853,10.13742 a 2.2396819,1.2930302 59.68934 0 1 -1.58863,0.90574 2.2396819,1.2930302 59.68934 0 1 -1.58863,-2.74013 2.2396819,1.2930302 59.68934 0 1 1.58863,-0.90575 2.2396819,1.2930302 59.68934 0 1 1.58863,2.74014 z M 459.197,395.57854 a 2.2396819,1.2930302 59.68934 0 1 -1.58863,0.90574 2.2396819,1.2930302 59.68934 0 1 -1.58863,-2.74013 2.2396819,1.2930302 59.68934 0 1 1.58863,-0.90575 2.2396819,1.2930302 59.68934 0 1 1.58863,2.74014 z m -11.70569,-6.75828 a 2.2396819,1.2930302 59.68934 0 1 -1.58862,0.90574 2.2396819,1.2930302 59.68934 0 1 -1.58863,-2.74014 2.2396819,1.2930302 59.68934 0 1 1.58863,-0.90574 2.2396819,1.2930302 59.68934 0 1 1.58862,2.74014 z m 43.89632,20.21053 a 2.2396819,1.2930302 59.68934 0 1 -1.58862,0.90574 2.2396819,1.2930302 59.68934 0 1 -1.58863,-2.74013 2.2396819,1.2930302 59.68934 0 1 1.58863,-0.90575 2.2396819,1.2930302 59.68934 0 1 1.58862,2.74014 z m -5.85284,-3.37914 a 2.2396819,1.2930302 59.68934 0 1 -1.58863,0.90574 2.2396819,1.2930302 59.68934 0 1 -1.58863,-2.74013 2.2396819,1.2930302 59.68934 0 1 1.58863,-0.90575 2.2396819,1.2930302 59.68934 0 1 1.58863,2.74014 z m -5.85284,-3.37914 a 2.2396819,1.2930302 59.68934 0 1 -1.58863,0.90574 2.2396819,1.2930302 59.68934 0 1 -1.58863,-2.74013 2.2396819,1.2930302 59.68934 0 1 1.58863,-0.90575 2.2396819,1.2930302 59.68934 0 1 1.58863,2.74014 z m -11.70569,-6.75828 a 2.2396819,1.2930302 59.68934 0 1 -1.58863,0.90574 2.2396819,1.2930302 59.68934 0 1 -1.58862,-2.74013 2.2396819,1.2930302 59.68934 0 1 1.58862,-0.90575 2.2396819,1.2930302 59.68934 0 1 1.58863,2.74014 z m -11.70568,-6.75828 a 2.2396819,1.2930302 59.68934 0 1 -1.58863,0.90574 2.2396819,1.2930302 59.68934 0 1 -1.58863,-2.74013 2.2396819,1.2930302 59.68934 0 1 1.58863,-0.90575 2.2396819,1.2930302 59.68934 0 1 1.58863,2.74014 z m 17.55853,10.13742 a 2.2396819,1.2930302 59.68934 0 1 -1.58863,0.90574 2.2396819,1.2930302 59.68934 0 1 -1.58863,-2.74013 2.2396819,1.2930302 59.68934 0 1 1.58863,-0.90575 2.2396819,1.2930302 59.68934 0 1 1.58863,2.74014 z m -11.70569,-6.75828 a 2.2396819,1.2930302 59.68934 0 1 -1.58863,0.90574 2.2396819,1.2930302 59.68934 0 1 -1.58863,-2.74013 2.2396819,1.2930302 59.68934 0 1 1.58863,-0.90575 2.2396819,1.2930302 59.68934 0 1 1.58863,2.74014 z m -11.70568,-6.75828 a 2.2396819,1.2930302 59.68934 0 1 -1.58863,0.90574 2.2396819,1.2930302 59.68934 0 1 -1.58863,-2.74014 2.2396819,1.2930302 59.68934 0 1 1.58863,-0.90574 2.2396819,1.2930302 59.68934 0 1 1.58863,2.74014 z m 43.89632,20.21053 a 2.2396819,1.2930302 59.68934 0 1 -1.58863,0.90574 2.2396819,1.2930302 59.68934 0 1 -1.58863,-2.74013 2.2396819,1.2930302 59.68934 0 1 1.58863,-0.90575 2.2396819,1.2930302 59.68934 0 1 1.58863,2.74014 z m -5.85285,-3.37914 a 2.2396819,1.2930302 59.68934 0 1 -1.58863,0.90574 2.2396819,1.2930302 59.68934 0 1 -1.58862,-2.74013 2.2396819,1.2930302 59.68934 0 1 1.58862,-0.90575 2.2396819,1.2930302 59.68934 0 1 1.58863,2.74014 z m -5.85284,-3.37914 a 2.2396819,1.2930302 59.68934 0 1 -1.58863,0.90574 2.2396819,1.2930302 59.68934 0 1 -1.58863,-2.74013 2.2396819,1.2930302 59.68934 0 1 1.58863,-0.90575 2.2396819,1.2930302 59.68934 0 1 1.58863,2.74014 z m -5.85284,-3.37914 a 2.2396819,1.2930302 59.68934 0 1 -1.58863,0.90574 2.2396819,1.2930302 59.68934 0 1 -1.58863,-2.74013 2.2396819,1.2930302 59.68934 0 1 1.58863,-0.90575 2.2396819,1.2930302 59.68934 0 1 1.58863,2.74014 z m -11.70569,-6.75828 a 2.2396819,1.2930302 59.68934 0 1 -1.58863,0.90574 2.2396819,1.2930302 59.68934 0 1 -1.58863,-2.74013 2.2396819,1.2930302 59.68934 0 1 1.58863,-0.90575 2.2396819,1.2930302 59.68934 0 1 1.58863,2.74014 z m -11.70568,-6.75828 a 2.2396819,1.2930302 59.68934 0 1 -1.58863,0.90574 2.2396819,1.2930302 59.68934 0 1 -1.58863,-2.74013 2.2396819,1.2930302 59.68934 0 1 1.58863,-0.90575 2.2396819,1.2930302 59.68934 0 1 1.58863,2.74014 z m 17.55853,10.13742 a 2.2396819,1.2930302 59.68934 0 1 -1.58863,0.90574 2.2396819,1.2930302 59.68934 0 1 -1.58863,-2.74013 2.2396819,1.2930302 59.68934 0 1 1.58863,-0.90575 2.2396819,1.2930302 59.68934 0 1 1.58863,2.74014 z M 459.197,385.3125 a 2.2396819,1.2930302 59.68934 0 1 -1.58863,0.90574 2.2396819,1.2930302 59.68934 0 1 -1.58863,-2.74013 2.2396819,1.2930302 59.68934 0 1 1.58863,-0.90575 2.2396819,1.2930302 59.68934 0 1 1.58863,2.74014 z m -11.70569,-6.75828 a 2.2396819,1.2930302 59.68934 0 1 -1.58862,0.90574 2.2396819,1.2930302 59.68934 0 1 -1.58863,-2.74014 2.2396819,1.2930302 59.68934 0 1 1.58863,-0.90574 2.2396819,1.2930302 59.68934 0 1 1.58862,2.74014 z"
         style="fill:#595959;fill-opacity:1;stroke:none;stroke-width:5;stroke-linecap:butt;stroke-linejoin:round;stroke-miterlimit:4;stroke-dasharray:0, 5, 10, 15, 20, 25, 30, 35, 40, 45, 50, 55, 60, 65, 70;stroke-dashoffset:0;stroke-opacity:1"
         id="path4483-62-5-1" />
      <path
         d="m 555.68594,386.98585 a 1.2930302,2.2396821 30.310658 0 1 -1.58863,2.74014 1.2930302,2.2396821 30.310658 0 1 -1.58863,-0.90575 1.2930302,2.2396821 30.310658 0 1 1.58863,-2.74013 1.2930302,2.2396821 30.310658 0 1 1.58863,0.90574 z m -5.85285,3.37914 a 1.2930302,2.2396821 30.310658 0 1 -1.58863,2.74014 1.2930302,2.2396821 30.310658 0 1 -1.58862,-0.90574 1.2930302,2.2396821 30.310658 0 1 1.58862,-2.74014 1.2930302,2.2396821 30.310658 0 1 1.58863,0.90574 z m -5.85284,3.37915 a 1.2930302,2.2396821 30.310658 0 1 -1.58863,2.74013 1.2930302,2.2396821 30.310658 0 1 -1.58863,-0.90574 1.2930302,2.2396821 30.310658 0 1 1.58863,-2.74014 1.2930302,2.2396821 30.310658 0 1 1.58863,0.90575 z m -5.85284,3.37914 a 1.2930302,2.2396821 30.310658 0 1 -1.58863,2.74013 1.2930302,2.2396821 30.310658 0 1 -1.58863,-0.90574 1.2930302,2.2396821 30.310658 0 1 1.58863,-2.74014 1.2930302,2.2396821 30.310658 0 1 1.58863,0.90575 z m -11.70569,6.75828 a 1.2930302,2.2396821 30.310658 0 1 -1.58863,2.74014 1.2930302,2.2396821 30.310658 0 1 -1.58863,-0.90575 1.2930302,2.2396821 30.310658 0 1 1.58863,-2.74013 1.2930302,2.2396821 30.310658 0 1 1.58863,0.90574 z m -11.70568,6.75828 a 1.2930302,2.2396821 30.310658 0 1 -1.58863,2.74014 1.2930302,2.2396821 30.310658 0 1 -1.58863,-0.90575 1.2930302,2.2396821 30.310658 0 1 1.58863,-2.74013 1.2930302,2.2396821 30.310658 0 1 1.58863,0.90574 z m 17.55853,-10.13742 a 1.2930302,2.2396821 30.310658 0 1 -1.58863,2.74014 1.2930302,2.2396821 30.310658 0 1 -1.58863,-0.90575 1.2930302,2.2396821 30.310658 0 1 1.58863,-2.74014 1.2930302,2.2396821 30.310658 0 1 1.58863,0.90575 z m -11.70569,6.75828 a 1.2930302,2.2396821 30.310658 0 1 -1.58863,2.74014 1.2930302,2.2396821 30.310658 0 1 -1.58863,-0.90575 1.2930302,2.2396821 30.310658 0 1 1.58863,-2.74013 1.2930302,2.2396821 30.310658 0 1 1.58863,0.90574 z m -11.70569,6.75829 a 1.2930302,2.2396821 30.310658 0 1 -1.58862,2.74013 1.2930302,2.2396821 30.310658 0 1 -1.58863,-0.90574 1.2930302,2.2396821 30.310658 0 1 1.58863,-2.74014 1.2930302,2.2396821 30.310658 0 1 1.58862,0.90575 z m 43.89632,-30.47659 a 1.2930302,2.2396821 30.310658 0 1 -1.58862,2.74014 1.2930302,2.2396821 30.310658 0 1 -1.58863,-0.90575 1.2930302,2.2396821 30.310658 0 1 1.58863,-2.74013 1.2930302,2.2396821 30.310658 0 1 1.58862,0.90574 z m -5.85284,3.37915 a 1.2930302,2.2396821 30.310658 0 1 -1.58863,2.74013 1.2930302,2.2396821 30.310658 0 1 -1.58863,-0.90574 1.2930302,2.2396821 30.310658 0 1 1.58863,-2.74014 1.2930302,2.2396821 30.310658 0 1 1.58863,0.90575 z m -5.85284,3.37914 a 1.2930302,2.2396821 30.310658 0 1 -1.58863,2.74013 1.2930302,2.2396821 30.310658 0 1 -1.58863,-0.90574 1.2930302,2.2396821 30.310658 0 1 1.58863,-2.74014 1.2930302,2.2396821 30.310658 0 1 1.58863,0.90575 z m -11.70569,6.75828 a 1.2930302,2.2396821 30.310658 0 1 -1.58863,2.74014 1.2930302,2.2396821 30.310658 0 1 -1.58862,-0.90575 1.2930302,2.2396821 30.310658 0 1 1.58862,-2.74014 1.2930302,2.2396821 30.310658 0 1 1.58863,0.90575 z m -11.70568,6.75828 a 1.2930302,2.2396821 30.310658 0 1 -1.58863,2.74014 1.2930302,2.2396821 30.310658 0 1 -1.58863,-0.90575 1.2930302,2.2396821 30.310658 0 1 1.58863,-2.74013 1.2930302,2.2396821 30.310658 0 1 1.58863,0.90574 z m 17.55853,-10.13742 a 1.2930302,2.2396821 30.310658 0 1 -1.58863,2.74013 1.2930302,2.2396821 30.310658 0 1 -1.58863,-0.90574 1.2930302,2.2396821 30.310658 0 1 1.58863,-2.74014 1.2930302,2.2396821 30.310658 0 1 1.58863,0.90575 z m -11.70569,6.75828 a 1.2930302,2.2396821 30.310658 0 1 -1.58863,2.74014 1.2930302,2.2396821 30.310658 0 1 -1.58863,-0.90575 1.2930302,2.2396821 30.310658 0 1 1.58863,-2.74013 1.2930302,2.2396821 30.310658 0 1 1.58863,0.90574 z m -11.70568,6.75828 a 1.2930302,2.2396821 30.310658 0 1 -1.58863,2.74014 1.2930302,2.2396821 30.310658 0 1 -1.58863,-0.90574 1.2930302,2.2396821 30.310658 0 1 1.58863,-2.74014 1.2930302,2.2396821 30.310658 0 1 1.58863,0.90574 z m 43.89632,-30.47658 a 1.2930302,2.2396821 30.310658 0 1 -1.58863,2.74014 1.2930302,2.2396821 30.310658 0 1 -1.58863,-0.90575 1.2930302,2.2396821 30.310658 0 1 1.58863,-2.74013 1.2930302,2.2396821 30.310658 0 1 1.58863,0.90574 z m -5.85285,3.37914 a 1.2930302,2.2396821 30.310658 0 1 -1.58863,2.74014 1.2930302,2.2396821 30.310658 0 1 -1.58862,-0.90574 1.2930302,2.2396821 30.310658 0 1 1.58862,-2.74014 1.2930302,2.2396821 30.310658 0 1 1.58863,0.90574 z m -5.85284,3.37915 a 1.2930302,2.2396821 30.310658 0 1 -1.58863,2.74013 1.2930302,2.2396821 30.310658 0 1 -1.58863,-0.90574 1.2930302,2.2396821 30.310658 0 1 1.58863,-2.74014 1.2930302,2.2396821 30.310658 0 1 1.58863,0.90575 z m -5.85284,3.37914 a 1.2930302,2.2396821 30.310658 0 1 -1.58863,2.74013 1.2930302,2.2396821 30.310658 0 1 -1.58863,-0.90574 1.2930302,2.2396821 30.310658 0 1 1.58863,-2.74014 1.2930302,2.2396821 30.310658 0 1 1.58863,0.90575 z m -11.70569,6.75828 a 1.2930302,2.2396821 30.310658 0 1 -1.58863,2.74014 1.2930302,2.2396821 30.310658 0 1 -1.58863,-0.90575 1.2930302,2.2396821 30.310658 0 1 1.58863,-2.74014 1.2930302,2.2396821 30.310658 0 1 1.58863,0.90575 z m -11.70568,6.75828 a 1.2930302,2.2396821 30.310658 0 1 -1.58863,2.74014 1.2930302,2.2396821 30.310658 0 1 -1.58863,-0.90575 1.2930302,2.2396821 30.310658 0 1 1.58863,-2.74013 1.2930302,2.2396821 30.310658 0 1 1.58863,0.90574 z m 17.55853,-10.13742 a 1.2930302,2.2396821 30.310658 0 1 -1.58863,2.74014 1.2930302,2.2396821 30.310658 0 1 -1.58863,-0.90575 1.2930302,2.2396821 30.310658 0 1 1.58863,-2.74014 1.2930302,2.2396821 30.310658 0 1 1.58863,0.90575 z m -11.70569,6.75828 a 1.2930302,2.2396821 30.310658 0 1 -1.58863,2.74014 1.2930302,2.2396821 30.310658 0 1 -1.58863,-0.90575 1.2930302,2.2396821 30.310658 0 1 1.58863,-2.74013 1.2930302,2.2396821 30.310658 0 1 1.58863,0.90574 z m -11.70569,6.75828 a 1.2930302,2.2396821 30.310658 0 1 -1.58862,2.74014 1.2930302,2.2396821 30.310658 0 1 -1.58863,-0.90574 1.2930302,2.2396821 30.310658 0 1 1.58863,-2.74014 1.2930302,2.2396821 30.310658 0 1 1.58862,0.90574 z"
         style="fill:#595959;fill-opacity:1;stroke:none;stroke-width:5;stroke-linecap:butt;stroke-linejoin:round;stroke-miterlimit:4;stroke-dasharray:0, 5, 10, 15, 20, 25, 30, 35, 40, 45, 50, 55, 60, 65, 70;stroke-dashoffset:0;stroke-opacity:1"
         id="path4483-62-5-1-6" />
    </g>
  </g>
</svg>
