<svg xmlns="http://www.w3.org/2000/svg" width="150.207" height="115.684" viewBox="0 0 140.819 108.454"><path d="M1.366 45.291l15.343-8.858 46.029 26.575L78.08 89.583v17.716L1.366 63.008z" fill="#146eb4" fill-rule="evenodd" stroke="#3e9ce5"/><path d="M78.08 89.583l15.344-26.575L124.11 45.29l15.343 8.859v17.716L78.08 107.3z" fill="#105890" fill-rule="evenodd" stroke="#3e9ce5"/><path d="M124.11 27.575l15.343 26.575-15.343-8.859z" fill="#0d4978" fill-rule="evenodd" stroke="#3e9ce5"/><path d="M1.366 45.291l15.343-26.574v17.716z" fill="#3c9ce6" fill-rule="evenodd" stroke="#3e9ce5"/><path d="M62.738 63.008L78.08 89.583l15.343-26.575z" fill="#146eb4" fill-rule="evenodd" stroke="#3e9ce5"/><path d="M16.709 36.433V18.717L47.395 1H78.08l46.029 26.575V45.29L93.424 63.008H62.738z" fill="#1884d8" fill-rule="evenodd" stroke="#3e9ce5"/><path d="M78.08 107.3L1.367 63.007V45.29l15.343-26.574L47.395 1H78.08l46.029 26.575 15.343 26.575v17.716z" fill="none" stroke="#000" stroke-width="2"/></svg>