<?xml version="1.0" encoding="UTF-8" standalone="no"?>
<svg
   xmlns:dc="http://purl.org/dc/elements/1.1/"
   xmlns:cc="http://creativecommons.org/ns#"
   xmlns:rdf="http://www.w3.org/1999/02/22-rdf-syntax-ns#"
   xmlns:svg="http://www.w3.org/2000/svg"
   xmlns="http://www.w3.org/2000/svg"
   width="39.742188mm"
   height="30.608103mm"
   viewBox="0 0 140.81877 108.45391"
   id="svg4168"
   version="1.1">
  <title
     id="title4742">Isometric Cloud Icons - Web Application</title>
  <defs
     id="defs4170" />
  <metadata
     id="metadata4173">
    <rdf:RDF>
      <cc:Work
         rdf:about="">
        <dc:format>image/svg+xml</dc:format>
        <dc:type
           rdf:resource="http://purl.org/dc/dcmitype/StillImage" />
        <dc:title>Isometric Cloud Icons - Web Application</dc:title>
        <dc:date>2016-04-28</dc:date>
        <dc:creator>
          <cc:Agent>
            <dc:title>Daniel Joos</dc:title>
          </cc:Agent>
        </dc:creator>
      </cc:Work>
    </rdf:RDF>
  </metadata>
  <g
     id="g4143">
    <g
       transform="translate(-506.73346,-200.99239)"
       id="layer1">
      <path
         id="path4159"
         d="m 508.09949,246.28373 15.34297,-8.85827 46.02891,26.5748 15.34297,26.5748 0,17.71654 -76.71485,-44.29134 z"
         style="fill:#146eb4;fill-opacity:1;fill-rule:evenodd;stroke:#3e9ce5;stroke-width:1px;stroke-linecap:butt;stroke-linejoin:miter;stroke-opacity:1" />
      <path
         id="path4161"
         d="m 584.81434,290.57506 15.34297,-26.5748 30.68594,-17.71653 15.34297,8.85826 0,17.71654 -61.37188,35.43307 z"
         style="fill:#105890;fill-opacity:1;fill-rule:evenodd;stroke:#3e9ce5;stroke-width:1px;stroke-linecap:butt;stroke-linejoin:miter;stroke-opacity:1" />
      <path
         id="path4165"
         d="m 630.84325,228.56719 15.34297,26.5748 -15.34297,-8.85826 z"
         style="fill:#0d4978;fill-opacity:1;fill-rule:evenodd;stroke:#3e9ce5;stroke-width:1px;stroke-linecap:butt;stroke-linejoin:miter;stroke-opacity:1" />
      <path
         id="path4167"
         d="m 508.09949,246.28373 15.34297,-26.57481 0,17.71654 z"
         style="fill:#3c9ce6;fill-opacity:1;fill-rule:evenodd;stroke:#3e9ce5;stroke-width:1px;stroke-linecap:butt;stroke-linejoin:miter;stroke-opacity:1" />
      <path
         id="path4185"
         d="m 569.47137,264.00026 15.34297,26.5748 15.34297,-26.5748 z"
         style="fill:#146eb4;fill-opacity:1;fill-rule:evenodd;stroke:#3e9ce5;stroke-width:1px;stroke-linecap:butt;stroke-linejoin:miter;stroke-opacity:1" />
      <path
         id="path4163"
         d="m 523.44246,237.42546 0,-17.71654 30.68594,-17.71653 30.68594,0 46.02891,26.5748 0,17.71654 -30.68594,17.71653 -30.68594,0 z"
         style="fill:#1884d8;fill-opacity:1;fill-rule:evenodd;stroke:#3e9ce5;stroke-width:1px;stroke-linecap:butt;stroke-linejoin:miter;stroke-opacity:1" />
      <path
         id="path4187"
         d="m 584.81434,308.2916 -76.71485,-44.29134 0,-17.71653 15.34297,-26.57481 30.68594,-17.71653 30.68594,0 46.02891,26.5748 15.34297,26.5748 0,17.71654 z"
         style="fill:none;fill-rule:evenodd;stroke:#000000;stroke-width:2;stroke-linecap:butt;stroke-linejoin:miter;stroke-miterlimit:4;stroke-dasharray:none;stroke-opacity:1" />
      <path
         d="m 586.04882,243.53072 c -0.27567,0.15915 -0.76366,0.15827 -1.04105,-0.002 L 558.9,228.45551 c -0.27739,-0.16015 -0.27892,-0.44189 -0.003,-0.60105 l 13.4913,-7.7892 c 0.27566,-0.15916 0.76366,-0.15827 1.04105,0.002 l 26.10776,15.07332 c 0.2774,0.16016 0.27892,0.4419 0.003,0.60105 l -13.4913,7.78921 z m 15.57993,-6.58334 c 1.42696,-0.82386 1.41963,-2.17623 -0.0163,-3.00526 L 575.50469,218.8688 c -1.43593,-0.82904 -3.7783,-0.83327 -5.20526,-0.009 l -17.64248,10.18588 c -1.42696,0.82386 -1.41962,2.17623 0.0163,3.00526 l 8.87664,5.12493 c -1.41075,0.8145 -3.55771,0.84818 -4.15768,1.19458 -0.56755,0.32767 -0.56459,0.87237 0.007,1.2021 l 8.35448,4.82346 c 0.57111,0.32973 1.51456,0.33144 2.0821,0.004 0.56754,-0.32767 0.69075,-1.60467 2.06906,-2.40044 l 8.87665,5.12493 c 1.43592,0.82903 3.77829,0.83326 5.20526,0.009 l 17.64247,-10.18589 z"
         id="path4196"
         style="font-style:normal;font-weight:normal;font-size:medium;line-height:125%;font-family:sans-serif;letter-spacing:0px;word-spacing:0px;fill:#ffffff;fill-opacity:1;stroke:none;stroke-width:1px;stroke-linecap:butt;stroke-linejoin:miter;stroke-opacity:1" />
    </g>
  </g>
</svg>
