<svg xmlns="http://www.w3.org/2000/svg" width="150.207" height="115.684" viewBox="0 0 140.819 108.454"><path d="M1.366 45.291l15.343-8.858 46.029 26.575L78.08 89.583v17.716L1.366 63.008z" fill="#146eb4" fill-rule="evenodd" stroke="#3e9ce5"/><path d="M78.08 89.583l15.344-26.575L124.11 45.29l15.343 8.859v17.716L78.08 107.3z" fill="#105890" fill-rule="evenodd" stroke="#3e9ce5"/><path d="M124.11 27.575l15.343 26.575-15.343-8.859z" fill="#0d4978" fill-rule="evenodd" stroke="#3e9ce5"/><path d="M1.366 45.291l15.343-26.574v17.716z" fill="#3c9ce6" fill-rule="evenodd" stroke="#3e9ce5"/><path d="M62.738 63.008L78.08 89.583l15.343-26.575z" fill="#146eb4" fill-rule="evenodd" stroke="#3e9ce5"/><path d="M16.709 36.433V18.717L47.395 1H78.08l46.029 26.575V45.29L93.424 63.008H62.738z" fill="#1884d8" fill-rule="evenodd" stroke="#3e9ce5"/><path d="M78.08 107.3L1.367 63.007V45.29L16.71 18.716 47.395 1H78.08l46.029 26.575 15.343 26.575v17.716z" fill="none" stroke="#000" stroke-width="2"/><path d="M79.315 42.538c-.275.16-.763.159-1.04-.002L52.166 27.463c-.278-.16-.28-.442-.003-.6l13.49-7.79c.277-.16.765-.158 1.042.002l26.108 15.073c.277.16.279.442.003.601l-13.492 7.79zm15.58-6.583c1.427-.824 1.42-2.176-.016-3.005L68.771 17.876c-1.436-.829-3.778-.833-5.205-.009L45.923 28.053c-1.426.824-1.42 2.177.017 3.006l8.876 5.124c-1.41.815-3.557.849-4.157 1.195-.568.328-.565.872.007 1.202l8.354 4.824c.571.33 1.515.331 2.082.004.568-.328.691-1.605 2.07-2.4l8.876 5.124c1.436.83 3.778.833 5.205.01l17.643-10.187z" style="line-height:125%" font-weight="400" font-family="sans-serif" letter-spacing="0" word-spacing="0" fill="#fff"/></svg>